<svg width="17" height="12" viewBox="0 0 17 12" fill="none" xmlns="http://www.w3.org/2000/svg">
<path d="M9.53802 1.00137L16.1559 9.06208C16.9369 10.0105 16.3022 11.5 15.1169 11.5H1.88107C1.61579 11.5002 1.35607 11.419 1.13301 11.266C0.909957 11.113 0.733014 10.8947 0.623374 10.6373C0.513735 10.3799 0.476046 10.0943 0.514824 9.81467C0.5536 9.53503 0.667199 9.27323 0.842015 9.06061L7.45992 1.00285C7.58944 0.844911 7.74916 0.71833 7.92838 0.6316C8.10759 0.544871 8.30214 0.5 8.49897 0.5C8.6958 0.5 8.89035 0.544871 9.06956 0.6316C9.24878 0.71833 9.4085 0.844911 9.53802 1.00285V1.00137Z" fill="#FDFEFF"/>
</svg>
