<svg width="16" height="12" viewBox="0 0 16 12" fill="none" xmlns="http://www.w3.org/2000/svg">
<path d="M6.96198 10.9986L0.344074 2.93792C-0.436938 1.98951 0.197807 0.500001 1.38312 0.500001H14.6189C14.8842 0.499758 15.1439 0.581001 15.367 0.734C15.59 0.886999 15.767 1.10527 15.8766 1.36267C15.9863 1.62007 16.024 1.9057 15.9852 2.18533C15.9464 2.46497 15.8328 2.72677 15.658 2.93939L9.04008 10.9972C8.91056 11.1551 8.75084 11.2817 8.57162 11.3684C8.39241 11.4551 8.19786 11.5 8.00103 11.5C7.8042 11.5 7.60965 11.4551 7.43044 11.3684C7.25122 11.2817 7.0915 11.1551 6.96198 10.9972V10.9986Z" fill="#FDFEFF"/>
</svg>
